HIERARCHY
ROOT Hips
{
	OFFSET 20.463800 7.826293 43.778099
	CHANNELS 6 Xposition Yposition Zposition Zrotation Xrotation Yrotation
	JOINT Chest
	{
		OFFSET -0.076000 1.394599 8.347801
		CHANNELS 6 Xposition Yposition Zposition Zrotation Xrotation Yrotation
		JOINT Chest2
		{
			OFFSET 0.000000 0.000000 3.321602
			CHANNELS 6 Xposition Yposition Zposition Zrotation Xrotation Yrotation
			JOINT Neck
			{
				OFFSET 0.000000 -0.000002 7.732101
				CHANNELS 6 Xposition Yposition Zposition Zrotation Xrotation Yrotation
				JOINT Head
				{
					OFFSET 0.000000 0.000000 2.173897
					CHANNELS 6 Xposition Yposition Zposition Zrotation Xrotation Yrotation
					End Site
					{
						OFFSET 0.000000 -0.000002 10.080803
					}
				}
			}
			JOINT LeftCollar
			{
				OFFSET 2.718100 -2.003101 4.670502
				CHANNELS 6 Xposition Yposition Zposition Zrotation Xrotation Yrotation
				JOINT LeftShoulder
				{
					OFFSET 4.147100 0.000000 0.000000
					CHANNELS 6 Xposition Yposition Zposition Zrotation Xrotation Yrotation
					JOINT LeftElbow
					{
						OFFSET 0.000000 0.000002 -10.254799
						CHANNELS 6 Xposition Yposition Zposition Zrotation Xrotation Yrotation
						JOINT LeftWrist
						{
							OFFSET 0.000000 0.000002 -12.664398
							CHANNELS 6 Xposition Yposition Zposition Zrotation Xrotation Yrotation
							End Site
							{
								OFFSET 0.000000 0.000000 -2.173901
							}
						}
					}
				}
			}
			JOINT RightCollar
			{
				OFFSET -2.489500 -2.085301 4.979698
				CHANNELS 6 Xposition Yposition Zposition Zrotation Xrotation Yrotation
				JOINT RightShoulder
				{
					OFFSET -4.160400 0.000000 0.000000
					CHANNELS 6 Xposition Yposition Zposition Zrotation Xrotation Yrotation
					JOINT RightElbow
					{
						OFFSET 0.000000 0.000002 -10.253998
						CHANNELS 6 Xposition Yposition Zposition Zrotation Xrotation Yrotation
						JOINT RightWrist
						{
							OFFSET 0.000000 0.000002 -12.768700
							CHANNELS 6 Xposition Yposition Zposition Zrotation Xrotation Yrotation
							End Site
							{
								OFFSET 0.000000 0.000000 -2.173901
							}
						}
					}
				}
			}
		}
	}
	JOINT LeftHip
	{
		OFFSET 2.212400 -0.073599 -2.641499
		CHANNELS 6 Xposition Yposition Zposition Zrotation Xrotation Yrotation
		JOINT LeftKnee
		{
			OFFSET 0.000000 0.000003 -17.950598
			CHANNELS 6 Xposition Yposition Zposition Zrotation Xrotation Yrotation
			JOINT LeftAnkle
			{
				OFFSET 0.000000 0.000003 -19.053900
				CHANNELS 6 Xposition Yposition Zposition Zrotation Xrotation Yrotation
				End Site
				{
					OFFSET 0.000000 -8.430400 -0.000001
				}
			}
		}
	}
	JOINT RightHip
	{
		OFFSET -2.162800 -0.306099 -2.581299
		CHANNELS 6 Xposition Yposition Zposition Zrotation Xrotation Yrotation
		JOINT RightKnee
		{
			OFFSET 0.000000 0.000003 -18.327099
			CHANNELS 6 Xposition Yposition Zposition Zrotation Xrotation Yrotation
			JOINT RightAnkle
			{
				OFFSET 0.000000 0.000003 -18.423401
				CHANNELS 6 Xposition Yposition Zposition Zrotation Xrotation Yrotation
				End Site
				{
					OFFSET 0.000000 -8.995800 -0.000002
				}
			}
		}
	}
}
MOTION
Frames: 4
Frame Time: 0.033334
19.920300 10.272593 42.609402 3.436442 1.203954 3.643049 -0.075998 1.394596 8.347798 -1.973851 5.704693 -15.106184 0.000004 0.000000 3.321596 3.419533 -2.850442 -0.109803 -0.000004 -0.000003 7.732094 -38.345833 16.827902 3.824759 0.000001 -0.000003 2.173885 -3.799519 3.163223 -8.408761 2.718097 -2.003103 4.670505 2.194153 -0.801594 -22.135275 4.147099 0.000001 0.000000 -8.142945 -22.811029 -104.958260 0.000005 0.000002 -10.254803 59.388392 -4.725557 2.935098 0.000003 0.000001 -12.664398 64.994058 5.170592 -3.080732 -2.489503 -2.085303 4.979694 -6.976335 -3.216878 -20.867077 -4.160406 0.000001 0.000004 -9.362139 -6.579482 60.035683 0.000000 0.000001 -10.254004 -72.091267 -4.103272 -4.038552 -0.000000 0.000005 -12.768703 -44.671155 -6.839181 -0.179035 2.212403 -0.073602 -2.641501 9.666853 -11.740017 -13.199524 0.000005 -0.000002 -17.950603 -23.753830 46.151913 47.917520 0.000003 0.000000 -19.053902 11.213304 37.603272 17.383043 -2.162802 -0.306099 -2.581293 -9.664199 -12.110373 -0.311816 -0.000006 -0.000003 -18.327099 -38.047193 37.001331 -0.678287 0.000000 0.000000 -18.423401 18.695782 7.509117 6.906706 
19.908798 10.265493 42.604797 3.442882 1.130323 3.581532 -0.076000 1.394598 8.347798 -2.349652 6.104321 -15.089401 -0.000002 0.000002 3.321601 3.933173 -2.888917 -0.084468 -0.000000 0.000000 7.732096 -38.447111 16.987915 3.952034 0.000002 0.000004 2.173897 -4.087342 2.987627 -8.403837 2.718104 -2.003099 4.670502 2.814153 -1.805875 -21.630215 4.147096 0.000003 0.000002 -9.050914 -21.357841 -105.300808 -0.000005 0.000001 -10.254790 60.692774 -4.690628 3.006570 0.000003 0.000002 -12.664391 63.272960 5.637743 -2.900270 -2.489500 -2.085300 4.979694 -7.666096 -3.335655 -20.158436 -4.160409 -0.000001 0.000001 -9.119844 -6.534407 59.380456 -0.000001 0.000000 -10.254008 -72.226785 -4.224733 -4.135358 -0.000001 0.000001 -12.768699 -44.201118 -6.782427 0.052125 2.212398 -0.073599 -2.641503 9.654193 -11.584354 -13.175741 0.000005 -0.000001 -17.950596 -23.880074 45.908936 48.063102 0.000002 -0.000001 -19.053900 11.575245 37.680487 17.077396 -2.162802 -0.306099 -2.581298 -9.783444 -12.071990 -0.252556 -0.000008 -0.000003 -18.327095 -38.112964 37.069168 -0.573847 -0.000000 0.000003 -18.423403 18.900199 7.569989 6.843491 
19.901999 10.256291 42.602901 3.382579 1.016891 3.508567 -0.076004 1.394600 8.347809 -2.251317 6.401450 -15.139070 -0.000001 -0.000000 3.321603 4.058897 -2.899537 -0.069880 0.000002 0.000000 7.732106 -38.527232 16.651359 3.892308 0.000001 0.000004 2.173892 -4.277022 3.293799 -8.561543 2.718101 -2.003098 4.670509 2.962313 -2.164992 -21.332115 4.147098 0.000001 -0.000008 -9.868787 -21.048901 -105.771312 0.000002 0.000004 -10.254802 56.999342 -4.077085 1.898472 -0.000001 0.000007 -12.664398 67.898549 6.176237 -2.167076 -2.489497 -2.085299 4.979697 -8.015895 -3.527347 -19.888954 -4.160412 0.000001 -0.000006 -9.101776 -6.541573 59.140470 -0.000001 -0.000000 -10.254002 -71.413193 -4.366432 -4.171800 0.000000 0.000003 -12.768698 -44.481645 -7.018200 -0.087512 2.212399 -0.073598 -2.641494 9.647817 -11.385263 -13.184573 0.000007 -0.000001 -17.950605 -24.096921 45.602311 48.337949 0.000005 -0.000000 -19.053898 11.934933 37.538709 17.369176 -2.162803 -0.306098 -2.581300 -9.791793 -11.969126 -0.173247 -0.000008 -0.000002 -18.327097 -37.786676 37.091489 -0.646018 -0.000002 0.000005 -18.423399 18.841273 7.542049 6.501506 
19.899200 10.242493 42.605301 3.213732 0.926327 3.418068 -0.076002 1.394599 8.347798 -2.072406 6.564192 -15.068497 0.000002 -0.000004 3.321604 4.035017 -2.893581 -0.076613 -0.000004 -0.000000 7.732096 -38.662402 16.713941 3.967960 -0.000001 -0.000002 2.173887 -3.954770 3.295204 -8.604576 2.718095 -2.003099 4.670507 2.109669 -1.244285 -22.281274 4.147099 0.000001 0.000001 -8.083228 -23.011157 -104.657964 -0.000006 0.000004 -10.254785 57.013641 -4.614969 2.515047 0.000001 0.000010 -12.664407 67.174528 5.756479 -3.217280 -2.489499 -2.085299 4.979695 -7.799577 -3.643259 -19.741999 -4.160399 0.000001 -0.000000 -9.672532 -6.865176 59.062859 0.000002 0.000002 -10.254001 -70.231693 -4.418773 -3.965790 -0.000002 0.000003 -12.768706 -44.694487 -7.180029 -0.415578 2.212399 -0.073600 -2.641501 9.755720 -11.243004 -13.171529 0.000004 -0.000004 -17.950603 -23.831203 45.692524 48.302394 0.000005 0.000001 -19.053898 11.770544 37.483583 17.362259 -2.162803 -0.306099 -2.581301 -9.591222 -11.887797 -0.066087 -0.000007 -0.000004 -18.327099 -38.011953 37.072751 -0.596819 0.000000 0.000003 -18.423399 18.880924 7.653084 6.933120 
